<mxfile host="app.diagrams.net" modified="2023-06-24T00:19:07.267Z" agent="Mozilla/5.0 (Windows NT 10.0; Win64; x64) AppleWebKit/537.36 (KHTML, like Gecko) Chrome/113.0.0.0 Safari/537.36 OPR/99.0.0.0" etag="FVNm08y2Xwd_cE67bi4u" version="21.5.0">
  <diagram name="Page-1" id="a5QuwXkI3A9ysPLQ6ZaU">
    <mxGraphModel dx="1187" dy="647" grid="1" gridSize="10" guides="1" tooltips="1" connect="1" arrows="1" fold="1" page="1" pageScale="1" pageWidth="850" pageHeight="1100" math="0" shadow="0">
      <root>
        <mxCell id="0" />
        <mxCell id="1" parent="0" />
        <mxCell id="phntUiUeC9hHIfoaSwir-4" style="edgeStyle=orthogonalEdgeStyle;rounded=0;orthogonalLoop=1;jettySize=auto;html=1;" edge="1" parent="1" source="phntUiUeC9hHIfoaSwir-1" target="phntUiUeC9hHIfoaSwir-5">
          <mxGeometry relative="1" as="geometry">
            <mxPoint x="230" y="40" as="targetPoint" />
          </mxGeometry>
        </mxCell>
        <mxCell id="phntUiUeC9hHIfoaSwir-1" value="Administrador" style="shape=umlActor;verticalLabelPosition=bottom;verticalAlign=top;html=1;outlineConnect=0;align=left;fillColor=#FFFFCC;" vertex="1" parent="1">
          <mxGeometry x="40" y="40" width="30" height="60" as="geometry" />
        </mxCell>
        <mxCell id="phntUiUeC9hHIfoaSwir-5" value="Manter estacionamentos" style="ellipse;whiteSpace=wrap;html=1;fillColor=#ffffcc;" vertex="1" parent="1">
          <mxGeometry x="190" y="30" width="120" height="80" as="geometry" />
        </mxCell>
        <mxCell id="phntUiUeC9hHIfoaSwir-10" style="rounded=0;orthogonalLoop=1;jettySize=auto;html=1;" edge="1" parent="1" source="phntUiUeC9hHIfoaSwir-6" target="phntUiUeC9hHIfoaSwir-7">
          <mxGeometry relative="1" as="geometry" />
        </mxCell>
        <mxCell id="phntUiUeC9hHIfoaSwir-11" style="rounded=0;orthogonalLoop=1;jettySize=auto;html=1;" edge="1" parent="1" source="phntUiUeC9hHIfoaSwir-6" target="phntUiUeC9hHIfoaSwir-8">
          <mxGeometry relative="1" as="geometry" />
        </mxCell>
        <mxCell id="phntUiUeC9hHIfoaSwir-12" style="rounded=0;orthogonalLoop=1;jettySize=auto;html=1;" edge="1" parent="1" source="phntUiUeC9hHIfoaSwir-6" target="phntUiUeC9hHIfoaSwir-9">
          <mxGeometry relative="1" as="geometry" />
        </mxCell>
        <mxCell id="phntUiUeC9hHIfoaSwir-6" value="&lt;div style=&quot;&quot;&gt;&lt;span style=&quot;background-color: initial;&quot;&gt;Operador do sistema&lt;/span&gt;&lt;/div&gt;" style="shape=umlActor;verticalLabelPosition=bottom;verticalAlign=top;html=1;outlineConnect=0;align=left;fillColor=#FFFFCC;" vertex="1" parent="1">
          <mxGeometry x="40" y="210" width="30" height="60" as="geometry" />
        </mxCell>
        <mxCell id="phntUiUeC9hHIfoaSwir-7" value="Registrar entrada" style="ellipse;whiteSpace=wrap;html=1;fillColor=#ffffcc;" vertex="1" parent="1">
          <mxGeometry x="320" y="120" width="120" height="80" as="geometry" />
        </mxCell>
        <mxCell id="phntUiUeC9hHIfoaSwir-8" value="Registrar saída" style="ellipse;whiteSpace=wrap;html=1;fillColor=#ffffcc;" vertex="1" parent="1">
          <mxGeometry x="320" y="210" width="120" height="80" as="geometry" />
        </mxCell>
        <mxCell id="phntUiUeC9hHIfoaSwir-9" value="Gerar relatórios" style="ellipse;whiteSpace=wrap;html=1;fillColor=#FFFFCC;" vertex="1" parent="1">
          <mxGeometry x="320" y="300" width="120" height="80" as="geometry" />
        </mxCell>
        <mxCell id="phntUiUeC9hHIfoaSwir-13" style="rounded=0;orthogonalLoop=1;jettySize=auto;html=1;" edge="1" parent="1" source="phntUiUeC9hHIfoaSwir-16" target="phntUiUeC9hHIfoaSwir-17">
          <mxGeometry relative="1" as="geometry" />
        </mxCell>
        <mxCell id="phntUiUeC9hHIfoaSwir-14" style="rounded=0;orthogonalLoop=1;jettySize=auto;html=1;" edge="1" parent="1" source="phntUiUeC9hHIfoaSwir-16" target="phntUiUeC9hHIfoaSwir-18">
          <mxGeometry relative="1" as="geometry" />
        </mxCell>
        <mxCell id="phntUiUeC9hHIfoaSwir-16" value="&lt;div style=&quot;&quot;&gt;Usuário&lt;/div&gt;" style="shape=umlActor;verticalLabelPosition=bottom;verticalAlign=top;html=1;outlineConnect=0;align=left;fillColor=#FFFFCC;" vertex="1" parent="1">
          <mxGeometry x="40" y="480" width="30" height="60" as="geometry" />
        </mxCell>
        <mxCell id="phntUiUeC9hHIfoaSwir-17" value="Manter carros" style="ellipse;whiteSpace=wrap;html=1;fillColor=#FFFFCC;" vertex="1" parent="1">
          <mxGeometry x="320" y="440" width="120" height="80" as="geometry" />
        </mxCell>
        <mxCell id="phntUiUeC9hHIfoaSwir-18" value="&lt;p style=&quot;line-height: 120%; font-size: 11px;&quot;&gt;&lt;font style=&quot;font-size: 11px;&quot;&gt;Visualizar histórico de tickets&lt;/font&gt;&lt;/p&gt;" style="ellipse;whiteSpace=wrap;html=1;fillColor=#FFFFCC;" vertex="1" parent="1">
          <mxGeometry x="320" y="530" width="120" height="80" as="geometry" />
        </mxCell>
      </root>
    </mxGraphModel>
  </diagram>
</mxfile>
